<?xml version="1.0" encoding="utf-8"?>
<!-- Generator: Adobe Illustrator 24.2.1, SVG Export Plug-In . SVG Version: 6.00 Build 0)  -->
<svg version="1.1" id="Layer_1" xmlns="http://www.w3.org/2000/svg" xmlns:xlink="http://www.w3.org/1999/xlink" x="0px" y="0px"
	 viewBox="0 0 110.8 31.3" style="enable-background:new 0 0 110.8 31.3;" xml:space="preserve">
<style type="text/css">
	.st0{fill:#E22230;}
</style>
<g>
	<g>
		<path class="st0" d="M92.6,10.3c-1.8,0-3.3-1.2-3.8-2.9h10.1l1.4-2.2H88.8c0.5-1.7,2-2.9,3.8-2.9h7l1.3-2.2h-8.5
			c-3.4,0.1-6,3-5.9,6.4c0.1,3.2,2.7,5.8,5.9,5.9h7.3l1.4-2.2H92.6z M63.8,12.4c-3.4-0.1-6-3-5.9-6.4c0.1-3.2,2.7-5.8,5.9-5.9h8.5
			l-1.4,2.2h-7c-2.2,0-4,1.8-4,4s1.8,4,4,4h8.5L71,12.5L63.8,12.4z M19,10.3c2.2,0,4-1.8,4-4s-1.8-4-4-4h-6.8c-2.2,0-4,1.8-4,4
			s1.8,4,4,4H19z M12.1,12.4c-3.4-0.1-6-3-5.9-6.4c0.1-3.2,2.7-5.8,5.9-5.9h7.1c3.4,0.1,6,3,5.9,6.4c-0.1,3.2-2.7,5.8-5.9,5.9H12.1z
			 M36.9,8.5c2.3-0.1,4.1-2.1,3.9-4.3C40.7,2,39,0.3,36.9,0.2H26.6v12.3h2.4V2.4h7.8c1.1,0,2,0.9,2,2s-0.9,2-2,2h-6.6l7,6.1h3.4
			l-4.7-4L36.9,8.5z M75.8,10.3V0.2h-2.3v11.1c0,0.3,0.1,0.6,0.3,0.8c0.2,0.2,0.5,0.3,0.9,0.3h10.7l1.4-2.2H75.8z M47,8.1h6.3
			L50,2.8l-6.1,9.7h-2.8l7.4-11.6c0.3-0.5,0.9-0.8,1.5-0.8c0.6,0,1.1,0.3,1.4,0.7l7.5,11.6h-2.8l-1.3-2.2h-6.4L47,8.1z"/>
		<path class="st0" d="M103.2,1.4c0.1,0,0.2,0,0.3-0.1c0,0,0-0.1,0-0.1c0-0.1,0-0.1-0.1-0.2c-0.1,0-0.2,0-0.3,0H103v0.4L103.2,1.4z
			 M103.1,0.7c0.1,0,0.3,0,0.4,0c0.2,0.1,0.3,0.2,0.3,0.4c0,0,0,0.1,0,0.1c0,0.1-0.1,0.2-0.2,0.3h-0.1l0.3,0.6h-0.4l-0.3-0.6H103
			v0.6h-0.3V0.7L103.1,0.7z M103.2,2.9c0.8,0,1.4-0.6,1.4-1.4s-0.6-1.4-1.4-1.4c-0.8,0-1.4,0.6-1.4,1.4S102.5,2.9,103.2,2.9
			L103.2,2.9 M102.1,1.5c0-0.6,0.5-1.1,1.1-1.1c0.6,0,1.1,0.5,1.1,1.1c0,0.6-0.5,1.1-1.1,1.1c0,0,0,0,0,0
			C102.6,2.6,102.1,2.1,102.1,1.5"/>
	</g>
	<g>
		<path d="M1.7,29.9H3c0.4,0,0.9-0.1,1.3-0.2c0.3-0.1,0.6-0.3,0.8-0.6c0.2-0.3,0.3-0.6,0.4-0.9c0.1-0.4,0.1-0.7,0.1-1.1
			c0-0.4,0-0.7-0.1-1.1c-0.1-0.3-0.2-0.6-0.4-0.9c-0.2-0.3-0.5-0.4-0.8-0.6c-0.4-0.2-0.8-0.2-1.3-0.2H1.7V29.9z M0.4,23.4h3.1
			c0.5,0,1,0.1,1.5,0.3c0.4,0.2,0.7,0.5,1,0.8c0.3,0.4,0.5,0.8,0.6,1.2c0.3,1,0.3,2,0,3c-0.1,0.4-0.3,0.8-0.5,1.2
			c-0.3,0.3-0.6,0.6-1,0.8c-0.5,0.2-1,0.3-1.5,0.3H0.4V23.4z"/>
		<path d="M10.7,28H13l-1.1-3.3l0,0L10.7,28z M11.1,23.4h1.4l2.9,7.6H14l-0.7-2h-3l-0.7,2H8.2L11.1,23.4z"/>
		<polygon points="15.6,23.4 21.7,23.4 21.7,24.6 19.3,24.6 19.3,31 18,31 18,24.6 15.6,24.6 		"/>
		<path d="M24.2,28h2.3l-1.1-3.3l0,0L24.2,28z M24.7,23.4h1.4L29,31h-1.4l-0.7-2h-3l-0.7,2h-1.4L24.7,23.4z"/>
		<rect x="34.8" y="23.4" width="1.3" height="7.6"/>
		<polygon points="38.8,23.4 40.2,23.4 43.6,29 43.7,29 43.7,23.4 44.9,23.4 44.9,31 43.5,31 40.1,25.4 40,25.4 40,31 38.8,31 		"/>
		<polygon points="46.8,23.4 53,23.4 53,24.6 50.6,24.6 50.6,31 49.2,31 49.2,24.6 46.8,24.6 		"/>
		<polygon points="54.9,23.4 60.4,23.4 60.4,24.6 56.2,24.6 56.2,26.6 60.1,26.6 60.1,27.7 56.2,27.7 56.2,29.9 60.4,29.9 60.4,31 
			54.9,31 		"/>
		<path d="M69.3,31h-0.9l-0.2-0.9c-0.5,0.7-1.4,1.1-2.3,1.1c-0.5,0-1-0.1-1.5-0.3c-0.4-0.2-0.8-0.5-1.1-0.8
			c-0.3-0.4-0.6-0.8-0.7-1.3c-0.3-1-0.3-2.1,0-3.1c0.2-0.5,0.4-0.9,0.7-1.3c0.3-0.4,0.7-0.7,1.1-0.9c0.5-0.2,1-0.3,1.5-0.3
			c0.4,0,0.8,0.1,1.2,0.2c0.3,0.1,0.7,0.3,1,0.5c0.3,0.2,0.5,0.5,0.7,0.8c0.2,0.3,0.3,0.7,0.4,1.1h-1.3c0-0.2-0.1-0.5-0.2-0.6
			c-0.1-0.2-0.3-0.4-0.4-0.5c-0.2-0.1-0.4-0.2-0.6-0.3c-0.2-0.1-0.5-0.1-0.7-0.1c-0.3,0-0.7,0.1-1,0.2c-0.3,0.2-0.5,0.4-0.7,0.7
			c-0.2,0.3-0.3,0.6-0.4,0.9c-0.2,0.7-0.2,1.4,0,2.1c0.1,0.3,0.2,0.6,0.4,0.9c0.2,0.3,0.4,0.5,0.7,0.7c0.3,0.2,0.6,0.2,1,0.2
			c0.3,0,0.6,0,0.9-0.1c0.2-0.1,0.5-0.2,0.7-0.4c0.2-0.2,0.3-0.4,0.4-0.7c0.1-0.3,0.2-0.6,0.1-0.9h-1.9v-1h3.2V31z"/>
		<path d="M73.1,26.9h2.2c0.4,0,0.7-0.1,1-0.3c0.2-0.2,0.4-0.6,0.3-0.9c0-0.2,0-0.4-0.1-0.6c-0.1-0.1-0.2-0.3-0.3-0.4
			c-0.1-0.1-0.3-0.1-0.4-0.2c-0.2,0-0.3,0-0.5,0h-2.2V26.9z M71.8,23.4h3.6c0.7-0.1,1.3,0.1,1.9,0.5c0.4,0.4,0.7,0.9,0.6,1.5
			c0,0.3,0,0.6-0.2,0.9c-0.1,0.2-0.2,0.4-0.4,0.6c-0.1,0.1-0.3,0.2-0.4,0.3l-0.3,0.1l0,0c0.1,0,0.3,0.1,0.4,0.1
			c0.1,0.1,0.3,0.2,0.4,0.3c0.1,0.1,0.2,0.3,0.3,0.5c0.1,0.2,0.1,0.5,0.1,0.7c0,0.4,0,0.8,0.1,1.2c0,0.3,0.1,0.6,0.3,0.8h-1.4
			c-0.1-0.2-0.2-0.4-0.2-0.5c0-0.2,0-0.4,0-0.6c0-0.3,0-0.6-0.1-0.9c0-0.2-0.1-0.4-0.2-0.6c-0.1-0.2-0.3-0.3-0.5-0.4
			c-0.3-0.1-0.5-0.1-0.8,0h-2v3.1h-1.3L71.8,23.4z"/>
		<path d="M81.9,28h2.3L83,24.7l0,0L81.9,28z M82.3,23.4h1.4l2.9,7.6h-1.4l-0.7-2h-3l-0.7,2h-1.4L82.3,23.4z"/>
		<polygon points="86.8,23.4 92.9,23.4 92.9,24.6 90.5,24.6 90.5,31 89.2,31 89.2,24.6 86.8,24.6 		"/>
		<path d="M98.1,24.3c-0.4,0-0.7,0.1-1,0.2c-0.3,0.2-0.5,0.4-0.7,0.7c-0.2,0.3-0.3,0.6-0.4,0.9c-0.2,0.7-0.2,1.4,0,2.1
			c0.1,0.3,0.2,0.6,0.4,0.9c0.2,0.3,0.4,0.5,0.7,0.7c0.3,0.2,0.7,0.2,1,0.2c0.3,0,0.7-0.1,1-0.2c0.3-0.2,0.5-0.4,0.7-0.7
			c0.2-0.3,0.3-0.6,0.4-0.9c0.2-0.7,0.2-1.4,0-2.1c-0.1-0.3-0.2-0.6-0.4-0.9c-0.2-0.3-0.4-0.5-0.7-0.7
			C98.8,24.4,98.4,24.3,98.1,24.3 M98.1,23.3c0.5,0,1,0.1,1.5,0.3c0.4,0.2,0.8,0.5,1.1,0.9c0.3,0.4,0.6,0.8,0.7,1.3
			c0.3,1,0.3,2.1,0,3.1c-0.2,0.5-0.4,0.9-0.7,1.3c-0.3,0.4-0.7,0.6-1.1,0.8c-1,0.4-2.1,0.4-3,0c-0.4-0.2-0.8-0.5-1.1-0.8
			c-0.3-0.4-0.6-0.8-0.7-1.3c-0.3-1-0.3-2.1,0-3.1c0.2-0.5,0.4-0.9,0.7-1.3c0.3-0.4,0.7-0.7,1.1-0.9C97,23.4,97.5,23.2,98.1,23.3"/>
		<path d="M105.3,26.9h2.2c0.4,0,0.7-0.1,1-0.3c0.2-0.2,0.4-0.6,0.3-0.9c0-0.2,0-0.4-0.1-0.6c-0.1-0.1-0.2-0.3-0.3-0.4
			c-0.1-0.1-0.3-0.1-0.4-0.2c-0.2,0-0.3,0-0.5,0h-2.2L105.3,26.9z M104,23.4h3.6c0.7-0.1,1.3,0.1,1.9,0.5c0.4,0.4,0.7,0.9,0.6,1.5
			c0,0.5-0.2,1.1-0.5,1.5c-0.1,0.1-0.3,0.2-0.4,0.3c-0.1,0.1-0.2,0.1-0.3,0.1l0,0c0.1,0,0.3,0.1,0.4,0.1c0.1,0.1,0.3,0.2,0.4,0.3
			c0.1,0.1,0.2,0.3,0.3,0.5c0.1,0.2,0.1,0.5,0.1,0.7c0,0.4,0,0.8,0.1,1.2c0,0.3,0.1,0.6,0.3,0.8H109c-0.1-0.2-0.2-0.4-0.2-0.5
			c0-0.2,0-0.4,0-0.6c0-0.3,0-0.6-0.1-0.9c0-0.2-0.1-0.4-0.2-0.6c-0.1-0.2-0.3-0.3-0.5-0.4c-0.2-0.1-0.5-0.1-0.7-0.1h-2V31H104
			L104,23.4z"/>
	</g>
	<g>
		<rect x="0.4" y="18.3" width="110" height="0.7"/>
	</g>
</g>
</svg>
